<?xml version="1.0" standalone="no"?>
<!DOCTYPE svg PUBLIC "-//W3C//DTD SVG 20010904//EN"
 "http://www.w3.org/TR/2001/REC-SVG-20010904/DTD/svg10.dtd">
<svg version="1.0" xmlns="http://www.w3.org/2000/svg"
 width="980.000000pt" height="980.000000pt" viewBox="0 0 980.000000 980.000000"
 preserveAspectRatio="xMidYMid meet">

<g transform="translate(0.000000,980.000000) scale(0.100000,-0.100000)"
fill="#000000" stroke="none">
<path d="M4588 9775 c-229 -32 -482 -93 -641 -156 -572 -227 -954 -672 -1112
-1298 -38 -151 -44 -236 -56 -726 l-11 -460 -62 -65 c-121 -125 -140 -194
-140 -515 -1 -260 9 -332 70 -507 79 -228 196 -439 371 -673 123 -163 164
-234 217 -372 265 -694 773 -1171 1391 -1305 82 -18 133 -22 285 -22 200 0
298 15 466 69 117 38 346 155 454 232 123 88 335 299 436 435 137 184 280 459
346 666 25 76 46 110 173 277 134 175 209 292 285 447 144 294 202 571 180
860 -17 224 -47 308 -148 419 l-50 54 -5 345 c-5 367 -13 452 -64 660 -51 212
-143 400 -256 528 -40 45 -51 69 -96 209 -64 198 -119 298 -225 410 -227 241
-689 427 -1212 488 -156 18 -461 18 -596 0z m2219 -2897 c34 -56 33 -105 -6
-263 -115 -451 -466 -771 -871 -792 -222 -11 -478 64 -646 191 -141 105 -222
253 -265 479 l-22 117 -97 0 -97 0 -17 -87 c-43 -227 -93 -330 -216 -453 -64
-64 -105 -96 -165 -127 -164 -84 -363 -129 -535 -120 -405 21 -756 341 -871
792 -39 158 -40 207 -6 263 l27 42 1880 0 1880 0 27 -42z"/>
<path d="M3200 4313 c-116 -37 -716 -280 -1059 -430 -697 -304 -986 -476
-1256 -748 -183 -184 -306 -357 -439 -615 -235 -458 -379 -946 -431 -1461 -27
-269 -17 -331 63 -384 140 -93 664 -257 1142 -359 710 -150 1763 -267 2685
-297 498 -16 2117 -6 2420 15 1123 79 1911 188 2580 358 327 82 719 219 818
284 78 52 89 118 62 382 -74 716 -353 1466 -708 1901 -142 174 -365 374 -562
504 -193 127 -762 391 -1435 664 -258 105 -473 183 -506 183 -25 0 -21 12 -74
-206 -191 -787 -477 -1651 -743 -2244 -183 -411 -569 -1142 -717 -1360 -90
-133 -147 -152 -222 -75 -105 109 -565 957 -772 1425 -268 606 -462 1178 -680
2001 -74 280 -123 439 -139 455 -7 7 -19 9 -27 7z m-375 -2262 c150 -6 197
-11 223 -25 100 -52 96 -222 -6 -258 -29 -10 -185 -13 -742 -13 -779 0 -742
-3 -787 64 -29 43 -31 113 -3 158 34 56 67 66 240 73 223 9 853 10 1075 1z"/>
<path d="M4675 3320 c-82 -4 -167 -11 -188 -15 -45 -9 -52 -29 -42 -113 11
-91 82 -439 107 -527 l23 -80 40 -7 c50 -9 506 -10 558 -1 24 3 44 14 53 28
16 25 61 216 99 420 26 139 36 257 24 270 -23 22 -425 37 -674 25z"/>
<path d="M4623 2393 c-20 -3 -37 -12 -44 -24 -11 -21 -105 -420 -135 -571 -21
-108 -24 -97 132 -408 158 -313 293 -548 321 -557 14 -5 35 26 161 247 108
188 262 488 293 570 19 50 20 61 9 130 -13 82 -108 462 -137 550 -15 47 -22
56 -48 61 -32 7 -499 8 -552 2z"/>
</g>
</svg>
