<?xml version="1.0" standalone="no"?>
<!DOCTYPE svg PUBLIC "-//W3C//DTD SVG 20010904//EN"
 "http://www.w3.org/TR/2001/REC-SVG-20010904/DTD/svg10.dtd">
<svg version="1.0" xmlns="http://www.w3.org/2000/svg"
 width="225.000000pt" height="225.000000pt" viewBox="0 0 225.000000 225.000000"
 preserveAspectRatio="xMidYMid meet">
<metadata>
Created by potrace 1.16, written by Peter Selinger 2001-2019
</metadata>
<g transform="translate(0.000000,225.000000) scale(0.100000,-0.100000)"
fill="#000000" stroke="none">
<path d="M975 2239 c-245 -31 -485 -155 -665 -345 -177 -186 -275 -400 -302
-659 -73 -700 531 -1302 1231 -1226 323 35 597 192 793 455 286 384 286 938 0
1322 -251 337 -643 504 -1057 453z m247 -219 c208 -24 391 -112 538 -260 308
-307 352 -783 107 -1145 -52 -76 -156 -180 -232 -232 -357 -242 -830 -202
-1135 97 -118 116 -186 225 -234 378 -100 319 -15 664 224 902 164 165 376
257 620 269 14 0 64 -4 112 -9z"/>
<path d="M1325 1549 c-225 -105 -415 -196 -422 -202 -9 -10 -266 -554 -369
-784 l-24 -53 53 24 c225 101 774 360 784 369 13 13 398 838 390 837 -1 -1
-186 -87 -412 -191z m-144 -314 c37 -20 69 -70 69 -110 0 -62 -63 -125 -125
-125 -61 0 -125 63 -125 123 0 63 62 127 123 127 15 0 41 -7 58 -15z"/>
</g>
</svg>
