<?xml version="1.0" standalone="no"?>
<!DOCTYPE svg PUBLIC "-//W3C//DTD SVG 20010904//EN"
 "http://www.w3.org/TR/2001/REC-SVG-20010904/DTD/svg10.dtd">
<svg version="1.0" xmlns="http://www.w3.org/2000/svg"
 width="512.000000pt" height="512.000000pt" viewBox="0 0 512.000000 512.000000"
 preserveAspectRatio="xMidYMid meet">

<g transform="translate(0.000000,512.000000) scale(0.100000,-0.100000)"
fill="#000000" stroke="none">
<path d="M1299 3493 c-1205 -1206 -1258 -1260 -1278 -1316 -58 -158 10 -332
157 -404 49 -24 69 -28 142 -28 109 0 158 22 251 111 l69 67 0 -776 0 -777
640 0 640 0 0 800 0 800 640 0 640 0 0 -800 0 -800 640 0 640 0 0 777 0 776
69 -67 c93 -89 142 -111 251 -111 73 0 93 4 142 28 147 72 215 246 157 404
-20 56 -73 110 -1278 1316 -690 691 -1258 1257 -1261 1257 -3 0 -571 -566
-1261 -1257z"/>
</g>
</svg>
