<?xml version="1.0" standalone="no"?>
<!DOCTYPE svg PUBLIC "-//W3C//DTD SVG 20010904//EN"
 "http://www.w3.org/TR/2001/REC-SVG-20010904/DTD/svg10.dtd">
<svg version="1.0" xmlns="http://www.w3.org/2000/svg"
 width="64.000000pt" height="64.000000pt" viewBox="0 0 64.000000 64.000000"
 preserveAspectRatio="xMidYMid meet">

<g transform="translate(0.000000,64.000000) scale(0.100000,-0.100000)"
fill="#000000" stroke="none">
<path d="M244 466 c-48 -48 -48 -104 0 -152 28 -28 42 -34 76 -34 34 0 48 6
76 34 28 28 34 42 34 76 0 60 -50 110 -110 110 -34 0 -48 -6 -76 -34z m115 -1
c16 -8 34 -28 41 -45 28 -67 -44 -138 -111 -110 -44 19 -66 68 -49 110 12 29
50 59 78 60 7 0 26 -7 41 -15z"/>
<path d="M225 211 c-55 -25 -130 -111 -96 -111 4 0 28 20 52 44 54 54 113 73
177 58 45 -10 65 0 33 17 -31 17 -122 12 -166 -8z"/>
<path d="M483 202 c-31 -5 -73 -58 -73 -93 0 -17 11 -41 28 -60 39 -44 95 -44
134 0 35 39 36 80 3 119 -25 30 -52 40 -92 34z m37 -56 c0 -7 9 -16 20 -19 11
-3 20 -10 20 -17 0 -7 -9 -14 -20 -17 -11 -3 -20 -12 -20 -19 0 -21 -16 -17
-46 11 l-27 25 24 24 c27 27 49 33 49 12z"/>
</g>
</svg>
