<?xml version="1.0" standalone="no"?>
<!DOCTYPE svg PUBLIC "-//W3C//DTD SVG 20010904//EN"
 "http://www.w3.org/TR/2001/REC-SVG-20010904/DTD/svg10.dtd">
<svg version="1.0" xmlns="http://www.w3.org/2000/svg"
 width="980.000000pt" height="980.000000pt" viewBox="0 0 980.000000 980.000000"
 preserveAspectRatio="xMidYMid meet">
<metadata>
Created by potrace 1.16, written by Peter Selinger 2001-2019
</metadata>
<g transform="translate(0.000000,980.000000) scale(0.100000,-0.100000)"
fill="#000000" stroke="none">
<path d="M4640 9793 c-381 -26 -614 -62 -940 -143 -591 -147 -1173 -420 -1675
-785 -406 -296 -815 -706 -1103 -1108 -1234 -1721 -1228 -4025 13 -5732 152
-208 301 -381 510 -590 205 -206 364 -342 580 -500 1017 -740 2280 -1058 3530
-890 1068 144 2069 643 2815 1402 322 328 568 649 780 1018 83 144 246 480
305 630 458 1157 458 2453 0 3610 -59 151 -221 485 -305 630 -331 576 -799
1102 -1335 1501 -848 630 -1890 971 -2940 962 -104 -1 -210 -3 -235 -5z m520
-413 c635 -39 1205 -194 1772 -482 1155 -586 2002 -1647 2322 -2908 181 -715
178 -1501 -10 -2218 -174 -671 -514 -1310 -967 -1825 -82 -93 -72 -101 -107
88 -31 165 -98 395 -165 567 -353 893 -1065 1587 -1968 1918 -70 26 -129 50
-130 53 -1 3 34 29 77 57 417 272 721 700 841 1180 59 237 75 533 40 765 -110
744 -628 1364 -1336 1600 -406 135 -833 138 -1234 8 -573 -185 -1033 -621
-1251 -1183 -141 -366 -166 -800 -69 -1190 117 -468 412 -890 812 -1160 57
-38 103 -73 104 -76 0 -4 -62 -30 -138 -59 -192 -72 -287 -115 -438 -197 -825
-448 -1428 -1225 -1650 -2128 -18 -74 -38 -171 -45 -215 -7 -44 -16 -86 -20
-93 -5 -10 -27 9 -72 60 -380 428 -696 976 -883 1532 -345 1026 -304 2159 116
3161 72 169 216 451 313 607 558 908 1413 1584 2427 1922 522 173 1107 250
1659 216z m-119 -1521 c366 -37 680 -179 940 -427 262 -249 428 -571 480 -931
19 -134 6 -421 -24 -552 -71 -300 -212 -554 -427 -769 -223 -222 -480 -362
-797 -432 -84 -19 -128 -22 -313 -22 -185 0 -229 3 -313 22 -652 145 -1128
640 -1239 1287 -17 102 -19 148 -15 305 6 203 25 309 87 485 235 664 926 1105
1621 1034z m186 -3569 c527 -64 1000 -251 1420 -561 175 -130 420 -368 552
-539 365 -469 573 -1012 616 -1606 l7 -92 -110 -87 c-1008 -804 -2268 -1138
-3532 -934 -504 81 -1033 266 -1484 521 -196 110 -599 392 -704 493 -27 26 18
392 78 625 250 979 991 1760 1960 2065 191 60 439 109 635 124 135 10 443 6
562 -9z"/>
</g>
</svg>
