<?xml version="1.0" standalone="no"?>
<!DOCTYPE svg PUBLIC "-//W3C//DTD SVG 20010904//EN"
 "http://www.w3.org/TR/2001/REC-SVG-20010904/DTD/svg10.dtd">
<svg version="1.0" xmlns="http://www.w3.org/2000/svg"
 width="512.000000pt" height="512.000000pt" viewBox="0 0 512.000000 512.000000"
 preserveAspectRatio="xMidYMid meet">
<metadata>
Created by potrace 1.16, written by Peter Selinger 2001-2019
</metadata>
<g transform="translate(0.000000,512.000000) scale(0.100000,-0.100000)"
fill="#000000" stroke="none">
<path d="M113 5090 c-39 -22 -61 -44 -83 -83 l-30 -52 0 -1958 c0 -1747 2
-1962 16 -1995 21 -52 60 -90 119 -118 l50 -24 668 0 668 0 24 25 c34 33 34
87 0 120 l-24 25 -651 0 c-406 0 -658 4 -670 10 -10 5 -23 24 -29 41 -8 23
-11 480 -11 1595 l0 1564 2400 0 2400 0 0 -1564 c0 -1058 -3 -1574 -10 -1592
-21 -54 -17 -53 -402 -54 -240 0 -365 -4 -381 -11 -25 -11 -47 -47 -47 -74 0
-27 22 -63 47 -74 16 -7 144 -11 396 -11 369 0 372 0 422 24 54 25 100 71 122
123 11 27 13 370 13 1988 0 1901 -1 1957 -19 1993 -26 51 -61 87 -109 111
l-41 21 -2393 0 -2393 0 -52 -30z m4819 -158 c23 -22 23 -28 26 -272 l3 -250
-2401 0 -2401 0 3 248 c3 264 5 273 53 293 11 4 1072 7 2357 6 l2337 -2 23
-23z"/>
<path d="M440 4757 c-54 -27 -61 -99 -13 -137 56 -44 133 -3 133 71 0 26 -52
79 -77 79 -10 0 -29 -6 -43 -13z"/>
<path d="M760 4742 c-32 -32 -37 -56 -19 -95 22 -49 83 -60 125 -23 54 46 30
127 -43 142 -27 5 -37 1 -63 -24z"/>
<path d="M1115 4759 c-32 -18 -45 -40 -45 -75 0 -69 78 -107 133 -64 52 41 29
134 -38 145 -16 3 -39 0 -50 -6z"/>
<path d="M1766 4749 c-21 -16 -26 -29 -26 -64 0 -35 5 -48 26 -64 l27 -21
1391 0 c1078 1 1395 3 1407 13 46 35 50 88 10 128 l-29 29 -1390 0 -1389 0
-27 -21z"/>
<path d="M580 3879 c-46 -14 -98 -65 -111 -109 -6 -22 -9 -190 -7 -466 l3
-431 29 -37 c50 -66 47 -66 526 -66 479 0 476 0 526 66 l29 37 3 440 c3 424 2
440 -17 481 -12 22 -37 52 -58 66 l-37 25 -425 2 c-263 1 -439 -2 -461 -8z
m830 -549 l0 -390 -390 0 -390 0 0 390 0 390 390 0 390 0 0 -390z"/>
<path d="M1803 3883 c-31 -6 -63 -50 -63 -85 0 -17 10 -39 25 -53 l24 -25 265
0 265 0 20 26 c28 35 26 77 -3 111 l-24 28 -244 1 c-133 1 -253 0 -265 -3z"/>
<path d="M2885 3881 c-46 -11 -79 -37 -103 -80 -23 -40 -23 -41 -20 -485 3
-431 4 -445 24 -472 11 -15 33 -37 48 -48 27 -20 41 -21 474 -24 l447 -2 39
23 c22 12 49 38 60 57 20 34 21 52 24 455 2 295 0 432 -9 462 -14 51 -61 98
-114 112 -45 12 -820 14 -870 2z m825 -551 l0 -390 -390 0 -390 0 0 390 0 390
390 0 390 0 0 -390z"/>
<path d="M4100 3883 c-59 -22 -77 -88 -39 -137 l20 -26 264 0 c295 0 300 1
311 71 5 29 1 41 -19 65 l-25 29 -249 2 c-136 1 -255 -1 -263 -4z"/>
<path d="M1765 3485 c-32 -31 -32 -75 -1 -112 l24 -28 172 0 172 0 25 29 c20
24 24 36 19 65 -10 66 -26 71 -218 71 -166 0 -169 0 -193 -25z"/>
<path d="M4061 3484 c-29 -37 -27 -85 5 -115 25 -23 30 -24 194 -24 185 0 202
5 215 65 7 32 -15 84 -40 94 -9 3 -92 6 -185 6 l-169 0 -20 -26z"/>
<path d="M1902 2690 c-69 -31 -101 -58 -132 -113 -36 -63 -46 -135 -30 -213 8
-38 115 -273 312 -689 349 -732 369 -775 363 -775 -3 0 -78 21 -167 47 -138
39 -176 47 -248 47 -131 -1 -209 -44 -257 -142 -36 -73 -38 -163 -5 -235 26
-58 114 -147 174 -175 558 -266 884 -416 928 -428 70 -18 203 -18 266 1 28 8
216 94 420 190 387 184 424 207 465 288 33 64 42 139 25 205 -12 46 -362 799
-468 1007 -54 106 -173 186 -299 204 -80 11 -234 -7 -460 -53 -90 -18 -167
-31 -171 -27 -3 3 -84 168 -178 366 -110 231 -185 376 -209 405 -56 66 -146
110 -224 110 -40 0 -78 -7 -105 -20z m161 -169 c43 -28 61 -60 241 -441 93
-195 178 -366 190 -378 29 -33 69 -52 108 -52 19 0 108 15 198 34 232 49 387
68 436 54 62 -17 111 -45 137 -80 26 -35 471 -967 480 -1006 9 -38 -12 -90
-46 -115 -18 -13 -192 -100 -387 -192 -319 -151 -361 -169 -418 -173 -34 -2
-84 1 -110 8 -26 7 -244 105 -486 219 -459 216 -506 244 -521 310 -8 36 8 76
39 96 52 35 88 30 369 -49 147 -42 280 -76 295 -76 15 0 35 6 44 14 23 17 40
64 32 90 -4 11 -171 365 -371 786 -201 421 -372 784 -380 808 -20 57 -10 104
28 136 37 31 82 34 122 7z"/>
<path d="M550 2367 c-30 -16 -51 -37 -67 -67 -23 -43 -23 -44 -23 -469 0 -423
0 -427 23 -471 16 -33 34 -51 67 -67 44 -23 48 -23 470 -23 422 0 426 0 470
23 33 16 51 34 68 67 22 44 22 48 22 471 0 425 0 426 -23 469 -16 30 -37 51
-67 67 -43 23 -44 23 -470 23 -426 0 -427 0 -470 -23z m860 -537 l0 -390 -390
0 -390 0 0 390 0 390 390 0 390 0 0 -390z"/>
<path d="M2854 2371 c-65 -30 -88 -71 -92 -166 -4 -75 -2 -81 22 -104 62 -58
146 -15 146 75 l0 44 390 0 390 0 0 -163 c0 -158 1 -164 23 -185 47 -44 127
-21 143 42 3 13 4 100 2 193 -3 154 -5 171 -26 205 -13 21 -40 45 -66 57 -41
20 -58 21 -467 21 -392 0 -427 -2 -465 -19z"/>
<path d="M4083 2380 c-48 -19 -58 -95 -18 -135 l24 -25 255 0 c140 0 262 3
271 6 19 8 45 55 45 84 0 12 -13 35 -29 51 l-29 29 -249 -1 c-136 0 -258 -4
-270 -9z"/>
<path d="M4091 2010 c-53 -23 -67 -86 -30 -134 l20 -26 169 0 c93 0 176 3 185
6 25 10 47 62 40 94 -13 59 -31 65 -204 67 -88 2 -167 -2 -180 -7z"/>
</g>
</svg>
