<?xml version="1.0" standalone="no"?>
<!DOCTYPE svg PUBLIC "-//W3C//DTD SVG 20010904//EN"
 "http://www.w3.org/TR/2001/REC-SVG-20010904/DTD/svg10.dtd">
<svg version="1.0" xmlns="http://www.w3.org/2000/svg"
 width="360.000000pt" height="450.000000pt" viewBox="0 0 360.000000 450.000000"
 preserveAspectRatio="xMidYMid meet">

<g transform="translate(0.000000,450.000000) scale(0.100000,-0.100000)"
fill="#000000" stroke="none">
<path d="M0 2250 l0 -2250 1358 0 1357 1 64 74 c36 41 69 75 73 75 28 0 7 -92
-29 -121 -28 -24 -9 -29 101 -29 128 0 128 0 126 77 -2 63 20 215 35 244 8 14
11 29 8 33 -10 10 46 86 65 86 9 0 23 9 30 20 24 38 81 15 106 -43 19 -47 26
-143 16 -217 -5 -36 -11 -95 -14 -133 l-6 -67 155 0 155 0 0 1570 c0 1389 -2
1570 -15 1570 -8 0 -16 3 -16 8 -8 52 -6 64 12 75 17 11 19 24 19 158 0 157
-1 161 -51 153 -19 -3 -31 6 -62 45 -21 28 -43 65 -49 83 -6 18 -22 50 -35 70
-13 21 -23 43 -23 49 0 6 -11 33 -25 61 -14 27 -25 55 -25 62 0 7 -11 27 -25
46 -33 45 -33 87 0 100 31 12 45 59 21 72 -20 11 -21 37 0 66 18 26 12 52 -11
52 -22 0 -18 27 5 33 31 8 60 -3 60 -24 0 -11 5 -19 10 -19 6 0 10 33 10 80 0
63 3 82 15 87 22 8 27 0 31 -54 2 -38 -1 -51 -16 -63 -21 -16 -18 -60 5 -60
15 0 27 -54 27 -122 1 -27 4 -48 8 -48 17 0 39 40 53 95 17 67 24 57 44 -61 5
-33 -13 -57 -23 -30 -3 9 -12 16 -20 16 -10 0 -12 -10 -8 -43 4 -26 0 -63 -10
-96 -14 -48 -14 -56 0 -82 14 -28 14 -31 -8 -49 -23 -18 -23 -18 -30 3 -5 20
-6 20 -7 -5 -1 -14 -6 -28 -13 -30 -7 -3 -9 -12 -5 -22 5 -13 14 -16 42 -10
31 5 35 4 35 -15 0 -23 19 -28 37 -10 9 9 8 22 -4 51 -12 29 -13 45 -5 61 6
12 13 46 16 75 7 71 19 88 27 37 3 -22 7 96 8 263 l1 302 -184 0 c-176 0 -184
-1 -179 -19 8 -30 -16 -35 -29 -7 l-11 26 -522 0 -522 0 5 -29 c2 -17 17 -45
34 -63 29 -33 29 -33 7 -36 -34 -6 -69 39 -69 89 l0 39 -1065 0 -1065 0 0
-2250z m2284 2195 c8 -42 -7 -75 -34 -75 -24 0 -26 26 -5 54 8 11 15 28 15 38
0 31 18 19 24 -17z m757 2 c6 -22 4 -27 -12 -27 -15 0 -19 7 -19 31 0 37 21
35 31 -4z m207 -174 c10 -20 4 -90 -8 -98 -5 -3 -22 6 -38 20 -16 14 -34 25
-39 25 -6 0 -18 9 -28 20 -27 30 -5 50 56 50 36 0 51 -4 57 -17z m-344 -108
c9 -44 -2 -105 -18 -105 -20 0 -25 10 -16 38 4 15 3 38 -2 51 -10 29 -4 51 16
51 8 0 16 -15 20 -35z m-770 -67 c5 -8 6 -23 3 -32 -12 -32 -87 -12 -87 24 0
39 60 45 84 8z m143 -25 c27 -31 29 -50 7 -74 -12 -14 -13 -21 -3 -37 18 -28
5 -55 -23 -47 -37 11 -48 35 -46 95 3 92 23 112 65 63z m749 -7 c3 -13 4 -38
2 -57 -2 -26 -8 -34 -23 -34 -16 0 -21 8 -23 44 -2 24 -1 50 2 57 9 22 35 16
42 -10z m-1660 -21 c16 -24 16 -28 -1 -66 -13 -28 -24 -39 -35 -36 -8 2 -22
-2 -29 -10 -20 -22 -53 -11 -78 25 -15 23 -19 40 -14 53 8 22 28 22 23 1 -5
-22 29 -52 59 -52 22 0 30 6 35 25 3 14 4 36 0 49 -10 42 15 49 40 11z m742
-21 c32 -9 30 -51 -4 -66 -43 -20 -83 22 -54 57 14 16 24 18 58 9z m821 -301
c16 -22 22 -25 30 -14 11 18 41 7 41 -15 0 -9 9 -27 20 -41 22 -29 25 -55 10
-84 -14 -26 -45 -24 -64 3 -9 12 -16 17 -16 10 0 -16 -35 -16 -48 1 -5 6 -12
21 -14 31 -1 11 -13 31 -25 44 -25 28 -28 44 -13 73 16 28 55 24 79 -8z
m-1620 -96 c8 -10 6 -23 -7 -49 -18 -34 -18 -36 -1 -57 10 -12 15 -29 12 -37
-8 -21 -41 -36 -63 -29 -27 9 -27 59 0 78 18 13 19 16 5 27 -15 13 -21 61 -8
73 11 12 50 8 62 -6z m-151 -39 c4 -29 -18 -51 -42 -42 -21 8 -21 50 2 63 24
15 37 8 40 -21z m1039 -30 c24 -23 52 -75 60 -111 5 -26 -28 -77 -52 -82 -53
-10 -103 -12 -118 -3 -26 14 -57 92 -57 142 0 65 28 90 94 82 32 -3 58 -14 73
-28z m-1047 -83 c0 -31 -26 -43 -47 -22 -21 21 -9 47 22 47 20 0 25 -5 25 -25z
m2294 -141 c7 -19 -3 -64 -15 -64 -17 0 -30 39 -19 60 13 24 26 26 34 4z
m-526 -56 c19 -19 15 -55 -7 -61 -20 -5 -51 20 -51 39 0 13 21 34 35 34 6 0
16 -5 23 -12z m116 -54 c6 -23 3 -59 -10 -121 -3 -15 -12 -23 -25 -23 -19 0
-20 4 -14 68 4 37 9 75 11 85 8 26 31 21 38 -9z m418 -16 c-9 -9 -12 -7 -12
12 0 19 3 21 12 12 9 -9 9 -15 0 -24z m-518 -44 c8 -20 -10 -44 -32 -44 -38 0
-72 71 -39 83 17 6 63 -19 71 -39z m-1675 -186 c7 -11 11 -21 9 -23 -2 -2 -35
-5 -75 -6 -106 -5 -124 24 -40 61 38 17 43 17 67 3 15 -8 32 -24 39 -35z m781
2 c6 -12 10 -33 8 -48 -2 -22 -9 -28 -36 -30 -77 -8 -110 59 -42 84 49 18 58
17 70 -6z m167 -30 c17 -10 36 -28 42 -38 9 -17 6 -22 -19 -32 -32 -13 -84 -8
-107 11 -18 15 -17 44 3 63 21 21 42 20 81 -4z m-362 -66 c77 -8 194 -26 260
-39 66 -13 143 -26 170 -30 175 -22 335 -69 500 -147 31 -14 143 -100 199
-152 27 -25 53 -46 57 -46 4 0 20 -24 34 -52 33 -67 43 -77 55 -58 5 8 13 11
17 6 4 -5 2 -11 -4 -13 -7 -3 -13 -13 -13 -24 0 -12 -9 -21 -25 -25 -18 -4
-23 -10 -16 -18 5 -6 6 -29 1 -53 -4 -24 -5 -54 -3 -67 4 -18 0 -26 -16 -31
-23 -7 -29 -25 -8 -25 9 0 9 -2 0 -8 -23 -15 -42 -136 -44 -292 -2 -85 0 -172
5 -192 7 -35 6 -38 -13 -38 -14 0 -21 -6 -21 -19 0 -11 -3 -26 -6 -34 -4 -12
3 -16 27 -19 31 -3 34 -6 41 -47 4 -25 4 -49 -1 -55 -5 -6 -14 -36 -21 -66 -7
-30 -17 -63 -22 -73 -5 -10 -10 -31 -10 -48 -1 -16 -5 -29 -9 -29 -5 0 -17
-17 -28 -39 -11 -21 -28 -42 -38 -45 -30 -12 -83 -50 -83 -61 0 -6 -13 -18
-28 -27 -28 -17 -29 -16 -54 12 -16 18 -21 31 -14 34 7 3 7 5 -2 5 -7 1 -17
-10 -22 -23 -13 -36 -29 -40 -42 -12 -14 33 -20 33 -41 -4 -10 -16 -22 -30
-27 -30 -16 0 -41 -33 -36 -47 4 -8 -4 -22 -16 -32 -17 -14 -26 -15 -44 -7
-13 6 -24 15 -24 20 0 5 -7 3 -15 -4 -9 -7 -15 -29 -15 -52 0 -31 -4 -41 -20
-45 -11 -3 -20 -12 -20 -19 0 -8 -4 -14 -10 -14 -5 0 -8 -14 -7 -30 2 -27 3
-28 15 -13 6 9 12 20 12 25 0 4 7 8 15 8 22 0 18 -38 -5 -50 -11 -6 -20 -20
-20 -32 0 -20 -9 -21 -51 -4 -11 5 -24 -5 -43 -33 -30 -42 -60 -66 -90 -72
-11 -2 -21 -13 -23 -24 -11 -68 -22 -167 -23 -207 0 -53 -13 -67 -39 -44 -23
21 -35 20 -26 -1 4 -10 9 -30 10 -45 5 -47 -20 -31 -35 22 -9 33 -19 50 -29
50 -12 0 -13 -2 -3 -8 14 -9 6 -42 -10 -42 -5 0 -16 17 -25 38 -9 20 -18 31
-20 25 -3 -7 -13 -13 -24 -13 -11 0 -24 -11 -31 -25 -14 -30 -48 -33 -55 -5
-4 16 -13 20 -37 18 -36 -2 -91 31 -101 61 -13 42 34 105 108 142 22 12 37 27
37 37 0 19 17 39 63 73 15 11 27 27 27 35 0 8 6 14 13 14 17 0 89 74 81 83
-12 11 -20 8 -46 -16 -65 -60 -351 -60 -416 -1 -11 11 -33 31 -49 45 -15 15
-38 32 -50 38 -34 17 -29 45 10 59 17 6 75 14 127 17 87 6 191 23 280 45 19 4
60 14 90 21 30 6 81 20 114 30 32 11 73 19 90 19 20 0 36 7 44 20 7 11 18 20
26 20 25 0 156 72 156 86 0 8 5 14 10 14 6 0 10 -9 10 -20 0 -25 25 -27 27 -2
1 9 5 29 8 44 9 35 -28 76 -51 57 -9 -7 -13 -20 -11 -30 4 -13 -7 -23 -44 -39
-94 -40 -234 -81 -288 -85 -29 -2 -57 -9 -62 -16 -18 -30 -133 -48 -195 -30
-20 6 -37 5 -50 -3 -11 -6 -67 -11 -134 -11 -63 0 -166 -6 -228 -13 -110 -13
-116 -13 -188 10 -75 23 -90 36 -53 45 30 8 22 48 -11 48 -31 0 -68 41 -77 85
-11 59 -47 113 -79 122 -25 6 -33 17 -48 60 -10 29 -26 67 -35 83 -9 17 -25
62 -35 100 -20 75 -31 96 -49 92 -6 -1 -13 9 -15 23 -2 13 -10 33 -18 44 -8
11 -14 30 -14 43 0 12 -4 24 -9 27 -5 3 -9 23 -9 43 0 21 -5 51 -11 66 -6 15
-7 27 -4 27 4 0 2 5 -5 12 -18 18 -15 34 13 78 21 34 30 40 60 40 22 0 41 -7
53 -21 12 -12 33 -20 53 -21 104 -1 308 37 316 59 3 7 15 13 26 13 21 0 21 0
-1 20 -16 15 -29 19 -49 13 -45 -11 -113 -1 -113 17 0 10 26 31 36 29 23 -4
44 2 39 11 -4 6 -12 10 -18 9 -20 -4 -66 12 -78 27 -6 8 -21 14 -33 14 -11 0
-32 6 -45 13 -32 16 -41 89 -15 118 23 26 54 25 54 -2 0 -34 29 -85 57 -100
50 -27 116 -5 155 51 16 23 33 37 40 34 7 -3 27 -24 45 -47 23 -31 29 -45 21
-54 -8 -10 -6 -13 9 -13 10 0 24 -5 31 -12 17 -17 15 -58 -2 -58 -18 0 -30
-30 -16 -44 15 -15 12 -42 -5 -56 -8 -7 -15 -27 -15 -44 0 -17 -7 -41 -15 -52
-10 -15 -15 -52 -16 -119 -2 -71 -6 -98 -16 -102 -7 -3 -18 -25 -24 -48 -6
-24 -17 -46 -25 -49 -8 -3 -14 -13 -14 -23 0 -10 -9 -35 -20 -56 -11 -20 -20
-46 -20 -57 0 -10 -9 -24 -21 -30 -20 -11 -21 -37 0 -33 6 2 11 -1 11 -5 0 -5
11 -14 25 -20 14 -6 25 -18 25 -26 0 -8 11 -24 25 -37 13 -13 25 -34 25 -46 0
-13 8 -24 20 -28 11 -3 32 -19 47 -36 23 -24 36 -29 73 -29 26 0 51 -5 57 -11
14 -14 49 4 58 30 3 11 18 21 38 24 35 5 107 49 120 73 10 18 2 18 -28 -2 -20
-13 -30 -14 -62 -4 -21 7 -46 16 -55 21 -10 5 -24 9 -32 9 -11 0 -39 28 -111
113 -8 9 -15 20 -15 25 0 4 -7 15 -15 26 -13 18 -15 17 -38 -8 -36 -38 -60
-34 -74 13 -11 35 -10 44 9 80 25 47 54 54 64 17 3 -13 14 -26 25 -29 23 -6
44 22 53 71 3 19 17 47 31 64 14 16 25 42 25 58 0 16 4 50 10 77 10 49 20 116
49 310 16 109 16 113 -4 173 -13 39 -36 79 -64 110 -24 27 -57 68 -72 92 -15
23 -34 45 -42 49 -22 13 -106 40 -187 61 -174 46 -198 51 -250 52 -56 2 -100
21 -100 43 0 7 6 13 13 13 7 0 28 10 47 23 73 49 144 66 355 87 106 11 376 3
550 -16z m1592 -101 c3 -13 2 -30 -1 -39 -6 -15 -8 -15 -25 0 -25 23 -35 64
-19 83 10 13 14 13 25 -4 8 -10 16 -28 20 -40z m-530 -25 c43 -19 56 -31 73
-65 42 -89 18 -129 -48 -80 -132 97 -159 130 -126 154 25 18 41 17 101 -9z
m-2280 -290 c-3 -7 -5 -2 -5 12 0 14 2 19 5 13 2 -7 2 -19 0 -25z m2721 8 c5
-23 -9 -37 -27 -27 -8 5 -11 16 -6 30 8 25 28 23 33 -3z m-2052 -31 c26 -19
-1 -20 -36 0 -23 13 -23 14 -4 15 11 0 29 -7 40 -15z m131 -79 c13 -11 23 -25
23 -32 0 -6 7 -14 15 -18 18 -7 20 -26 2 -26 -15 0 -117 103 -117 119 0 12 36
-8 77 -43z m-177 13 c0 -5 -7 -9 -15 -9 -15 0 -20 12 -9 23 8 8 24 -1 24 -14z
m2088 -269 c20 -30 22 -42 16 -85 -3 -27 -10 -61 -15 -73 -5 -13 -6 -28 -3
-34 11 -17 34 21 34 54 0 15 9 37 20 48 20 20 22 20 50 3 30 -17 44 -43 56
-102 17 -90 -3 -161 -64 -223 -31 -33 -42 -38 -82 -38 -34 0 -53 6 -69 22 -26
23 -26 -9 -4 361 7 121 17 132 61 67z m-58 -591 c0 -11 -4 -17 -10 -14 -5 3
-10 13 -10 21 0 8 5 14 10 14 6 0 10 -9 10 -21z m55 -119 c4 -23 1 -41 -8 -54
-31 -43 -58 29 -31 83 19 37 28 31 39 -29z m-68 -42 c-3 -8 -6 -5 -6 6 -1 11
2 17 5 13 3 -3 4 -12 1 -19z m-775 -473 c0 -5 -5 -11 -11 -13 -6 -2 -11 4 -11
13 0 9 5 15 11 13 6 -2 11 -8 11 -13z m676 -45 c19 -61 16 -107 -8 -120 -15
-8 -20 -20 -19 -48 1 -20 -3 -49 -9 -63 -6 -15 -8 -29 -5 -33 3 -3 -5 -18 -19
-34 -13 -16 -35 -54 -49 -85 -13 -31 -28 -57 -33 -57 -4 0 -22 -15 -40 -33
-35 -37 -76 -46 -111 -23 -19 13 -21 22 -20 108 1 92 2 95 38 143 20 26 37 54
37 61 0 7 6 17 14 21 8 4 32 31 53 58 54 68 131 145 146 145 7 0 18 -18 25
-40z m-908 -264 c0 -3 -4 -8 -10 -11 -5 -3 -10 -1 -10 4 0 6 5 11 10 11 6 0
10 -2 10 -4z m-13 -151 c-9 -21 -37 -19 -36 3 0 10 3 12 6 5 7 -19 23 -16 23
4 0 9 3 14 6 10 4 -3 4 -13 1 -22z m-253 -133 c2 -4 -2 -15 -9 -25 -13 -18
-14 -18 -24 2 -6 11 -11 22 -11 25 0 9 38 7 44 -2z"/>
<path d="M2911 3656 c-10 -12 -8 -17 7 -25 24 -13 31 -6 25 20 -6 23 -16 24
-32 5z"/>
<path d="M2107 3533 c-4 -3 -7 -22 -7 -40 0 -60 71 -107 83 -55 11 54 -46 126
-76 95z"/>
<path d="M2220 2680 c-25 -5 -75 -13 -112 -18 -72 -11 -136 -37 -151 -63 -6
-9 -7 -27 -4 -41 7 -28 48 -48 98 -48 29 0 40 -22 19 -35 -15 -9 -12 -27 3
-20 6 4 3 -1 -7 -9 -11 -9 -26 -16 -33 -16 -7 0 -18 -10 -24 -22 -6 -13 -22
-32 -35 -43 -12 -11 -24 -31 -26 -45 -2 -20 2 -26 21 -28 13 -2 26 1 30 6 3 5
16 12 29 16 20 7 21 5 12 -19 -15 -40 -12 -55 11 -55 11 0 27 -6 34 -14 12
-12 11 -16 -10 -30 -32 -21 -31 -29 5 -66 24 -24 38 -30 73 -30 24 0 64 -7 88
-15 58 -20 204 -9 204 15 0 11 -23 18 -88 27 -97 14 -139 31 -163 68 -8 13
-25 26 -37 28 -22 4 -22 4 1 13 20 9 22 12 9 22 -8 7 -29 11 -47 10 -37 -3
-52 17 -21 27 11 3 22 14 25 23 6 17 94 72 115 72 6 0 11 -9 11 -21 0 -25 12
-47 45 -85 26 -30 27 -30 82 -19 44 9 61 18 83 45 32 40 66 37 56 -5 -10 -39
21 -49 127 -40 112 8 115 10 109 42 -5 26 -57 83 -76 83 -5 0 -23 11 -40 24
-47 36 -121 62 -231 82 -102 19 -222 20 -239 3 -12 -11 -36 -12 -36 -1 0 10
64 32 120 41 25 4 76 18 114 31 65 22 73 23 155 11 47 -7 97 -20 111 -29 55
-36 90 -49 139 -50 28 0 51 1 51 3 0 16 -26 55 -44 64 -11 7 -37 22 -58 34
-142 86 -117 79 -293 82 -88 2 -180 0 -205 -5z m165 -310 c3 -5 -1 -10 -9 -10
-9 0 -16 5 -16 10 0 6 4 10 9 10 6 0 13 -4 16 -10z"/>
<path d="M2260 2220 c0 -5 9 -10 21 -10 11 0 17 5 14 10 -3 6 -13 10 -21 10
-8 0 -14 -4 -14 -10z"/>
<path d="M1897 1493 c-45 -35 -47 -48 -4 -38 17 3 49 9 70 12 37 6 38 5 32
-19 -6 -23 -4 -25 17 -21 34 6 77 43 59 50 -7 3 -21 14 -29 24 -26 30 -100 26
-145 -8z"/>
<path d="M2590 1460 c0 -5 18 -29 40 -51 41 -43 47 -58 30 -75 -8 -8 -6 -15 4
-24 13 -10 17 -10 20 1 18 58 9 119 -17 119 -8 0 -22 9 -32 20 -19 21 -45 27
-45 10z"/>
<path d="M2557 1227 c-3 -8 -2 -20 3 -27 6 -10 10 -8 19 7 10 19 6 33 -10 33
-4 0 -9 -6 -12 -13z"/>
<path d="M2110 920 c0 -5 7 -10 15 -10 8 0 15 5 15 10 0 6 -7 10 -15 10 -8 0
-15 -4 -15 -10z"/>
<path d="M2152 869 c-14 -22 -15 -29 -4 -29 11 0 33 38 24 44 -4 3 -13 -4 -20
-15z"/>
<path d="M2050 860 c-13 -8 -12 -10 3 -10 9 0 20 0 24 -1 4 0 9 4 11 10 5 14
-18 14 -38 1z"/>
<path d="M3365 4175 c3 -14 7 -37 10 -51 5 -21 9 -24 20 -14 8 6 20 8 26 4 9
-5 11 3 6 31 -7 44 -4 40 -40 49 -25 6 -27 5 -22 -19z"/>
<path d="M3395 4063 c-32 -8 -38 -20 -22 -44 12 -16 13 -27 6 -40 -18 -34 36
-91 56 -59 8 12 -5 150 -14 149 -3 -1 -15 -3 -26 -6z"/>
<path d="M3572 3685 c-24 -49 -36 -55 -52 -25 -6 11 -17 20 -25 20 -8 0 -15
-9 -15 -20 0 -11 5 -20 10 -20 6 0 15 -12 20 -26 9 -22 14 -25 38 -19 15 4 33
8 40 8 8 0 12 20 12 64 0 35 -1 63 -3 63 -2 0 -13 -20 -25 -45z"/>
</g>
</svg>
