<?xml version="1.0" standalone="no"?>
<!DOCTYPE svg PUBLIC "-//W3C//DTD SVG 20010904//EN"
 "http://www.w3.org/TR/2001/REC-SVG-20010904/DTD/svg10.dtd">
<svg version="1.0" xmlns="http://www.w3.org/2000/svg"
 width="512.000000pt" height="512.000000pt" viewBox="0 0 512.000000 512.000000"
 preserveAspectRatio="xMidYMid meet">
<metadata>
Created by potrace 1.16, written by Peter Selinger 2001-2019
</metadata>
<g transform="translate(0.000000,512.000000) scale(0.100000,-0.100000)"
fill="#000000" stroke="none">
<path d="M1776 5104 c-931 -126 -1656 -869 -1767 -1808 -7 -63 -10 -176 -6
-305 7 -273 43 -452 139 -694 224 -568 689 -1006 1269 -1196 220 -72 404 -101
646 -101 430 0 806 113 1162 352 l104 70 691 -691 c530 -529 701 -695 736
-710 62 -28 168 -28 226 0 49 23 110 86 130 135 21 50 18 160 -7 214 -15 35
-180 205 -710 736 l-691 691 64 94 c181 265 302 579 343 894 19 148 19 402 0
547 -93 708 -549 1321 -1197 1610 -188 84 -360 133 -573 163 -125 18 -425 18
-559 -1z m589 -532 c313 -68 552 -199 781 -427 144 -144 223 -253 304 -420
331 -687 101 -1524 -535 -1947 -247 -164 -499 -244 -800 -255 -458 -16 -852
146 -1176 484 -196 205 -328 456 -394 753 -25 113 -32 400 -12 526 75 467 345
863 759 1109 148 88 350 159 543 191 116 19 413 11 530 -14z"/>
</g>
</svg>
